# xmcd
#
# Track frame offsets: 
#        150
#        13737
#        27387
#        42397
#        51692
#        71147
#        85117
#        99217
#        108820
#        124455
#        136685
#        149475
#
# Disc length: 2233 seconds
#
# Revision: 0
# Processed by: cddbd v1.5.1PL2 Copyright (c) Steve Scherf et al.
# Submitted via: ExactAudioCopy v0.95b3
#
DISCID=ab08b70c
DTITLE=Nothin' Fancy - Album# 7
DYEAR=2006
DGENRE=Bluegrass
TTITLE0=How Can I Lose
TTITLE1=I Washed My Face In The Morning Dew
TTITLE2=Walk Through This World With Me
TTITLE3=I Wish You Knew
TTITLE4=I Can't Say Hello
TTITLE5=Pass Me By
TTITLE6=What I Didn't Do
TTITLE7=Tupelo County Jail
TTITLE8=The Touch Of Your Hand
TTITLE9=Ghost Dance
TTITLE10=Two Little Boys
TTITLE11=Nearer My God To Thee
EXTD=
EXTT0=
EXTT1=
EXTT2=
EXTT3=
EXTT4=
EXTT5=
EXTT6=
EXTT7=
EXTT8=
EXTT9=
EXTT10=
EXTT11=
PLAYORDER=
